<?xml version="1.0" encoding="UTF-8" standalone="no"?>
<svg
   xmlns:dc="http://purl.org/dc/elements/1.1/"
   xmlns:cc="http://creativecommons.org/ns#"
   xmlns:rdf="http://www.w3.org/1999/02/22-rdf-syntax-ns#"
   xmlns:svg="http://www.w3.org/2000/svg"
   xmlns="http://www.w3.org/2000/svg"
   viewBox="0 0 1847.5 210.11999"
   height="210.12"
   width="1847.5"
   xml:space="preserve"
   version="1.1"
   id="svg4136"><metadata
     id="metadata4142"><rdf:RDF><cc:Work
         rdf:about=""><dc:format>image/svg+xml</dc:format><dc:type
           rdf:resource="http://purl.org/dc/dcmitype/StillImage" /><dc:title></dc:title></cc:Work></rdf:RDF></metadata><defs
     id="defs4140"><clipPath
       id="clipPath4156"
       clipPathUnits="userSpaceOnUse"><path
         id="path4158"
         d="m 0,0 1190.552,0 0,841.89 L 0,841.89 0,0 Z" /></clipPath><clipPath
       id="clipPath4208"
       clipPathUnits="userSpaceOnUse"><path
         id="path4210"
         d="m 595.275,378.958 595.276,0 0,399.152 -595.276,0 0,-399.152 z" /></clipPath><clipPath
       id="clipPath4220"
       clipPathUnits="userSpaceOnUse"><path
         id="path4222"
         d="m 0,0 1190.552,0 0,841.89 L 0,841.89 0,0 Z" /></clipPath></defs><g
     transform="matrix(1.25,0,0,-1.25,-1230.2739,231.216)"
     id="g4144"><g
       transform="matrix(8,0,0,8,1035.6991,51.9408)"
       id="g4248"><path
         id="path4250"
         style="fill:#8c959a;fill-opacity:1;fill-rule:nonzero;stroke:none"
         d="M 0,0 C 4.641,0 6.961,1.701 6.961,5.103 6.961,6.105 6.692,6.886 6.155,7.444 5.69,7.931 4.974,8.261 4.007,8.433 4.479,8.547 4.83,8.651 5.06,8.744 5.597,8.959 6.055,9.278 6.435,9.7 c 0.63,0.695 0.945,1.601 0.945,2.718 0,1.246 -0.476,2.17 -1.429,2.771 -0.838,0.538 -1.994,0.806 -3.47,0.806 l -5.811,0 L -6.435,0 0,0 Z m -1.225,7.208 2.331,0 c 1.425,0 2.138,-0.58 2.138,-1.74 0,-1.791 -1.01,-2.686 -3.029,-2.686 l -2.299,0 0.859,4.426 z m 1.161,5.962 1.912,0 c 1.131,0 1.697,-0.473 1.697,-1.418 0,-1.461 -0.731,-2.191 -2.191,-2.191 l -2.127,0 0.709,3.609 z M 20.24,0.591 c -0.257,0.329 -0.386,0.737 -0.386,1.224 0,0.423 0.057,0.931 0.172,1.526 l 1.622,8.368 -2.256,0 -0.731,-1.021 c -0.859,0.867 -1.915,1.3 -3.169,1.3 -1.21,0 -2.291,-0.343 -3.244,-1.031 C 11.167,10.176 10.379,8.998 9.885,7.423 9.477,6.105 9.273,4.827 9.273,3.588 c 0,-1.347 0.325,-2.36 0.977,-3.04 0.566,-0.587 1.329,-0.881 2.288,-0.881 0.903,0 1.751,0.287 2.546,0.859 0.444,0.323 0.924,0.781 1.44,1.375 L 16.932,0 20.122,0 20.24,0.591 Z M 16.481,3.255 C 15.657,2.503 14.912,2.127 14.246,2.127 c -0.895,0 -1.342,0.573 -1.342,1.719 0,0.472 0.057,1.042 0.171,1.708 0.144,0.802 0.323,1.489 0.537,2.062 0.466,1.239 1.3,1.859 2.503,1.859 0.559,0 1.057,-0.133 1.494,-0.398 L 16.481,3.255 Z m 18.435,5.016 c 0.093,0.495 0.14,0.935 0.14,1.322 0,0.752 -0.197,1.332 -0.591,1.74 -0.415,0.437 -1.024,0.655 -1.826,0.655 -1.411,0 -2.918,-0.788 -4.522,-2.363 l 1.375,7.004 -0.838,0 c -0.545,-0.437 -1.49,-0.681 -2.836,-0.731 L 22.724,0 l 3.523,0 1.547,7.96 c 0.981,0.759 1.816,1.139 2.503,1.139 0.659,0 0.989,-0.33 0.989,-0.989 0,-0.186 -0.033,-0.451 -0.097,-0.795 L 29.782,0 l 3.534,0 1.6,8.271 z M 48.744,8.164 c 0.107,0.551 0.161,1.017 0.161,1.397 0,0.744 -0.186,1.324 -0.559,1.74 -0.415,0.458 -1.035,0.687 -1.858,0.687 -1.404,0 -2.908,-0.784 -4.512,-2.352 l 0.441,2.213 -0.838,0.193 c -0.552,-0.437 -1.493,-0.677 -2.826,-0.72 L 36.573,0 l 3.523,0 1.558,7.96 c 0.959,0.759 1.79,1.139 2.492,1.139 0.659,0 0.988,-0.337 0.988,-1.01 0,-0.172 -0.032,-0.43 -0.096,-0.774 L 43.63,0 l 3.545,0 1.569,8.164 z m 7.618,8.465 C 55.825,16.192 54.887,15.948 53.548,15.898 L 50.454,0 l 2.309,0 0.871,1.278 c 0.966,-1.088 2.134,-1.632 3.502,-1.632 1.081,0 2.044,0.286 2.889,0.859 1.067,0.73 1.862,1.905 2.385,3.523 0.451,1.397 0.677,2.775 0.677,4.136 0,1.11 -0.244,2.005 -0.731,2.686 -0.537,0.759 -1.335,1.138 -2.395,1.138 -1.368,0 -2.725,-0.727 -4.072,-2.18 l 1.332,6.821 -0.859,0 z M 55.535,8.003 c 0.444,0.344 0.798,0.594 1.063,0.752 0.487,0.279 0.967,0.419 1.44,0.419 0.516,0 0.888,-0.176 1.117,-0.527 0.186,-0.279 0.279,-0.623 0.279,-1.031 0,-0.429 -0.075,-1.028 -0.225,-1.794 C 59.023,4.855 58.797,4.089 58.532,3.523 58.059,2.528 57.264,2.03 56.147,2.03 c -0.587,0 -1.146,0.151 -1.676,0.451 l 1.064,5.522 z M 75.958,0.591 C 75.7,0.92 75.571,1.328 75.571,1.815 c 0,0.423 0.057,0.931 0.172,1.526 l 1.622,8.368 -2.256,0 -0.73,-1.021 c -0.86,0.867 -1.916,1.3 -3.169,1.3 -1.21,0 -2.292,-0.343 -3.244,-1.031 C 66.884,10.176 66.097,8.998 65.602,7.423 65.194,6.105 64.99,4.827 64.99,3.588 c 0,-1.347 0.326,-2.36 0.978,-3.04 0.565,-0.587 1.328,-0.881 2.288,-0.881 0.902,0 1.751,0.287 2.546,0.859 0.444,0.323 0.924,0.781 1.439,1.375 L 72.649,0 75.84,0 75.958,0.591 Z m -3.76,2.664 C 71.375,2.503 70.63,2.127 69.964,2.127 c -0.895,0 -1.343,0.573 -1.343,1.719 0,0.472 0.057,1.042 0.172,1.708 0.143,0.802 0.322,1.489 0.537,2.062 0.465,1.239 1.3,1.859 2.503,1.859 0.559,0 1.056,-0.133 1.493,-0.398 L 72.198,3.255 Z M 87.497,11.494 85.918,3.416 C 85.009,2.764 84.26,2.438 83.673,2.438 c -0.702,0 -1.053,0.362 -1.053,1.085 0,0.208 0.04,0.509 0.118,0.903 l 1.408,7.358 -3.588,-0.29 -1.461,-7.53 C 78.982,3.369 78.925,2.868 78.925,2.46 c 0,-0.845 0.208,-1.504 0.623,-1.977 0.48,-0.544 1.16,-0.816 2.041,-0.816 0.852,0 1.694,0.254 2.524,0.763 0.552,0.336 1.157,0.827 1.816,1.471 L 86.434,0 l 2.374,0 2.288,11.784 -3.599,-0.29 z m 21.606,4.856 c -2.134,0 -3.91,-0.394 -5.328,-1.182 -1.755,-0.967 -3.004,-2.553 -3.749,-4.759 C 99.489,8.834 99.22,7.28 99.22,5.747 c 0,-1.726 0.494,-3.108 1.483,-4.146 1.21,-1.275 3.111,-1.913 5.704,-1.913 1.898,0 3.713,0.348 5.446,1.042 l 1.504,7.778 -6.198,0 -0.548,-2.793 2.642,0 -0.59,-2.997 c -0.595,-0.151 -1.207,-0.226 -1.837,-0.226 -2.428,0 -3.642,1.064 -3.642,3.191 0,0.58 0.068,1.242 0.204,1.987 0.201,1.153 0.455,2.12 0.763,2.9 0.336,0.881 0.852,1.569 1.547,2.063 0.773,0.551 1.851,0.827 3.233,0.827 1.382,0 2.718,-0.276 4.007,-0.827 l 0.591,2.986 c -1.304,0.487 -2.779,0.731 -4.426,0.731 m 9.38,-16.35 1.515,7.81 c 1.11,0.479 2.392,0.794 3.845,0.945 l 0.645,3.233 c -0.824,-0.107 -1.565,-0.376 -2.224,-0.805 -0.63,-0.409 -1.285,-1.028 -1.965,-1.859 l 0.483,2.525 -0.816,0.193 c -0.552,-0.437 -1.494,-0.677 -2.826,-0.72 L 114.96,0 l 3.523,0 z m 15.321,11.494 -1.579,-8.078 c -0.91,-0.652 -1.658,-0.978 -2.246,-0.978 -0.701,0 -1.052,0.362 -1.052,1.085 0,0.208 0.039,0.509 0.118,0.903 l 1.407,7.358 -3.588,-0.29 -1.461,-7.53 c -0.114,-0.595 -0.172,-1.096 -0.172,-1.504 0,-0.845 0.208,-1.504 0.623,-1.977 0.48,-0.544 1.161,-0.816 2.041,-0.816 0.853,0 1.694,0.254 2.525,0.763 0.551,0.336 1.156,0.827 1.815,1.471 L 132.74,0 l 2.374,0 2.288,11.784 -3.598,-0.29 z m 7.382,-15.877 0.999,5.146 c 0.795,-0.745 1.794,-1.117 2.997,-1.117 1.375,0 2.538,0.447 3.491,1.342 0.838,0.788 1.468,1.912 1.891,3.373 0.386,1.325 0.58,2.582 0.58,3.771 0,1.224 -0.276,2.173 -0.827,2.847 -0.559,0.673 -1.325,1.009 -2.299,1.009 -1.39,0 -2.747,-0.723 -4.072,-2.17 l 0.398,2.052 -0.838,0.172 c -0.544,-0.437 -1.482,-0.677 -2.814,-0.72 l -3.051,-15.705 3.545,0 z m 2.395,12.386 c 0.989,0.78 1.819,1.171 2.492,1.171 0.495,0 0.86,-0.161 1.096,-0.484 0.215,-0.286 0.322,-0.648 0.322,-1.085 0,-0.393 -0.064,-0.941 -0.193,-1.643 -0.165,-0.91 -0.358,-1.64 -0.58,-2.191 -0.48,-1.154 -1.289,-1.73 -2.428,-1.73 -0.609,0 -1.199,0.15 -1.772,0.451 l 1.063,5.511 z m 11.754,-12.386 0.999,5.146 c 0.795,-0.745 1.794,-1.117 2.997,-1.117 1.375,0 2.539,0.447 3.492,1.342 0.837,0.788 1.468,1.912 1.89,3.373 0.387,1.325 0.58,2.582 0.58,3.771 0,1.224 -0.275,2.173 -0.827,2.847 -0.558,0.673 -1.325,1.009 -2.299,1.009 -1.389,0 -2.746,-0.723 -4.071,-2.17 l 0.397,2.052 -0.837,0.172 c -0.545,-0.437 -1.483,-0.677 -2.815,-0.72 l -3.051,-15.705 3.545,0 z m 2.396,12.386 c 0.988,0.78 1.819,1.171 2.492,1.171 0.494,0 0.859,-0.161 1.096,-0.484 0.215,-0.286 0.322,-0.648 0.322,-1.085 0,-0.393 -0.065,-0.941 -0.193,-1.643 -0.165,-0.91 -0.359,-1.64 -0.581,-2.191 -0.479,-1.154 -1.289,-1.73 -2.427,-1.73 -0.609,0 -1.2,0.15 -1.773,0.451 l 1.064,5.511 z m 19.091,-4.909 c -0.666,-0.237 -1.15,-0.394 -1.45,-0.473 -0.724,-0.2 -1.433,-0.301 -2.127,-0.301 -0.989,0 -1.644,0.186 -1.966,0.559 -0.279,0.329 -0.419,0.766 -0.419,1.31 0,0.129 0.007,0.283 0.021,0.462 1.848,0.065 3.262,0.233 4.244,0.505 2.127,0.587 3.19,1.78 3.19,3.577 0,1.075 -0.387,1.905 -1.16,2.493 -0.752,0.565 -1.769,0.848 -3.051,0.848 -1.253,0 -2.363,-0.268 -3.33,-0.805 -1.253,-0.688 -2.156,-1.705 -2.707,-3.051 -0.537,-1.311 -0.806,-2.664 -0.806,-4.061 0,-1.31 0.344,-2.345 1.032,-3.104 0.852,-0.939 2.18,-1.407 3.985,-1.407 0.967,0 1.88,0.128 2.739,0.386 0.286,0.086 0.716,0.24 1.289,0.462 l 0.516,2.6 z m -5.178,5.167 c 0.423,0.916 1.096,1.375 2.02,1.375 0.895,0 1.342,-0.434 1.342,-1.3 0,-0.681 -0.412,-1.139 -1.235,-1.375 -0.537,-0.15 -1.278,-0.258 -2.224,-0.322 l -0.376,-0.022 c 0.136,0.702 0.294,1.25 0.473,1.644" /></g></g></svg>