<svg id="图层_1" data-name="图层 1" xmlns="http://www.w3.org/2000/svg" viewBox="0 0 383.52 46.41"><defs><style>.cls-1{fill:#b4babd;}</style></defs><title>GK Design Group</title><rect class="cls-1" x="38.05" y="1.23" width="6.97" height="34.7"/><path class="cls-1" d="M25.26,12h6.92S30.08,0,16.67,0C3.86,0,0,12.19,0,18.25c0,8,4.16,18.46,16.71,18.46,6.13,0,9.93-5.48,9.93-5.48v4.68l5.88,0V17.06l-15-.06v5.57h8.64s-1.45,8.21-9.48,8.21c-5.68,0-9.36-4.38-9.36-12.53,0-6.6,3.51-12.75,9.24-12.75A8.56,8.56,0,0,1,25.26,12Z"/><polygon class="cls-1" points="57.91 1.23 66.66 1.23 53.18 17.13 68.41 35.91 59.71 35.91 45.03 17.13 57.91 1.23"/><path class="cls-1" d="M100.31,2a10.92,10.92,0,0,1,5.93,4.21A15.48,15.48,0,0,1,108.75,12a25.63,25.63,0,0,1,.66,5.56,22.14,22.14,0,0,1-2.84,11.7c-2.45,4.45-6.38,6.65-11.66,6.65H80V1.23H94.92a14.85,14.85,0,0,1,5.39.8M87,7V29.79h6.69a7.2,7.2,0,0,0,7.13-4.9A18.47,18.47,0,0,0,102,18.13c0-3.62-.57-6.17-1.68-8.09S97,7,93.74,7Z"/><path class="cls-1" d="M130.92,10.73a11.77,11.77,0,0,1,4.43,3.67,13.26,13.26,0,0,1,2.07,5.36,37.72,37.72,0,0,1,.2,5.19H118.94a6.15,6.15,0,0,0,2.68,5.34,6.26,6.26,0,0,0,3.65,1,5.42,5.42,0,0,0,3.7-1.21,5.7,5.7,0,0,0,1.41-1.81h6.9A8.75,8.75,0,0,1,134.75,33c-2.26,2.53-5.48,3.73-9.58,3.73a13.66,13.66,0,0,1-9-3.13c-2.62-2.1-3.94-5.62-3.94-10.26s1.21-8,3.57-10.21a12.15,12.15,0,0,1,9.13-3.63,15.72,15.72,0,0,1,6,1.23m-10,5.74a6.88,6.88,0,0,0-1.82,4h11.58a5.49,5.49,0,0,0-1.82-4.1A5.58,5.58,0,0,0,124.87,15,5.15,5.15,0,0,0,120.87,16.47Z"/><path class="cls-1" d="M147.37,27.57a4.87,4.87,0,0,0,.92,2.56c.86.95,2.41,1.46,4.62,1.46a7.4,7.4,0,0,0,3.23-.66,2,2,0,0,0,1.12-1.86,1.91,1.91,0,0,0-.9-1.71c-.6-.41-3-1.08-7-1.92a13.56,13.56,0,0,1-6.17-2.66,5.75,5.75,0,0,1-1.81-4.66,7.62,7.62,0,0,1,2.8-6A11.18,11.18,0,0,1,152,9.5a15,15,0,0,1,7.85,1.95c2,1.34,3.19,3.35,3.48,6.52H156.7a4.23,4.23,0,0,0-.74-2,4.68,4.68,0,0,0-3.85-1.41,5.21,5.21,0,0,0-3.11.72,1.85,1.85,0,0,0-1,1.6,1.7,1.7,0,0,0,1,1.68,48.61,48.61,0,0,0,7,2,13.28,13.28,0,0,1,6,2.83A6.42,6.42,0,0,1,164,28a8.07,8.07,0,0,1-2.79,6.34c-1.94,1.63-4.84,2.37-8.84,2.37s-7-.77-8.91-2.52a8.46,8.46,0,0,1-2.92-6.64Z"/><path class="cls-1" d="M175.09,6.95h-6.77V1h6.77V6.95m-6.77,3.3h6.77V35.93h-6.77Z"/><path class="cls-1" d="M193.56,10.17a7.86,7.86,0,0,1,4,3.74V10.25h6.52V34.57c0,3.15-.53,5.67-1.63,7.41-1.93,2.94-5.59,4.43-11,4.43a14.67,14.67,0,0,1-8-2,7.19,7.19,0,0,1-3.44-5.92h7.28a2.83,2.83,0,0,0,.92,1.74,5.32,5.32,0,0,0,3.67,1c2.43,0,4-.85,4.86-2.49a11.23,11.23,0,0,0,.81-5V32a7.35,7.35,0,0,1-2.09,2.5A8.17,8.17,0,0,1,190.18,36a10,10,0,0,1-7.94-3.49,14.69,14.69,0,0,1-2.91-9.42c0-4,.92-7.19,2.82-9.66a9.6,9.6,0,0,1,8.08-4,7.25,7.25,0,0,1,3.33.67m2.27,18.35c1.1-1.22,1.63-3,1.63-5.58a9.2,9.2,0,0,0-1.56-5.74,5.12,5.12,0,0,0-4.11-1.89,4.91,4.91,0,0,0-4.91,3.36,12.32,12.32,0,0,0-.7,4.5,9,9,0,0,0,.76,3.85,4.93,4.93,0,0,0,4.92,3.33A5.23,5.23,0,0,0,195.83,28.52Z"/><path class="cls-1" d="M230.3,11.65c1.65,1.39,2.5,3.48,2.5,6.82V35.93h-6.88V20.24a8.35,8.35,0,0,0-.52-3.29,3.88,3.88,0,0,0-3.81-2,4.67,4.67,0,0,0-4.66,3,9.92,9.92,0,0,0-.68,4v14H209.6V10.25h6.46V14a9.75,9.75,0,0,1,2.47-2.87,8.41,8.41,0,0,1,5.25-1.63A10.18,10.18,0,0,1,230.3,11.65Z"/><path class="cls-1" d="M271.34,12.06a6.83,6.83,0,0,0-4-5.15,11,11,0,0,0-3.93-.73,8.26,8.26,0,0,0-6.91,3.19c-1.82,2.14-2.74,5.18-2.74,9.44s1,7.25,3,9.06a9.7,9.7,0,0,0,6.65,2.71,8.51,8.51,0,0,0,6-2.17A8.91,8.91,0,0,0,272.19,23h-7.93V17.13h14.43v18.8h-4.8l-.76-4.38a19,19,0,0,1-3.8,3.51,13.41,13.41,0,0,1-7.06,1.68A14.63,14.63,0,0,1,251,32c-3.08-3.33-4.61-7.54-4.61-13.25,0-5.5,1.56-10,4.66-13.55A16.47,16.47,0,0,1,263.35.34c4.42,0,7.9,1,10.62,3.11a13,13,0,0,1,4.62,8.61Z"/><path class="cls-1" d="M298.4,9.53a3,3,0,0,1,.56,0v6.84c-.41,0-.8-.09-1.11-.14a7.2,7.2,0,0,0-.8-.05c-2.7,0-4.54.87-5.45,2.65a11.44,11.44,0,0,0-.75,4.71V35.93h-6.7V10.25h6.33v4.26a15.59,15.59,0,0,1,2.71-3.37,7.41,7.41,0,0,1,4.89-1.63A1.32,1.32,0,0,1,298.4,9.53Z"/><path class="cls-1" d="M323.64,32.76c-2.14,2.72-5.47,4-9.85,4s-7.73-1.25-9.9-4a15.49,15.49,0,0,1-3.26-9.64,14.45,14.45,0,0,1,3.26-9.62c2.17-2.77,5.46-4.21,9.9-4.21s7.71,1.44,9.85,4.21a14.18,14.18,0,0,1,3.25,9.62,15.18,15.18,0,0,1-3.25,9.64M318.29,29a9.6,9.6,0,0,0,1.56-5.84,10.18,10.18,0,0,0-1.56-6.06,5.29,5.29,0,0,0-4.51-2.18,5.38,5.38,0,0,0-4.55,2.18,10.28,10.28,0,0,0-1.6,6.06,9.7,9.7,0,0,0,1.6,5.84,5.39,5.39,0,0,0,4.55,2.17A5.3,5.3,0,0,0,318.29,29Z"/><path class="cls-1" d="M337.59,10.25V25.59a8.43,8.43,0,0,0,.51,3.27,3.58,3.58,0,0,0,3.61,2,4.71,4.71,0,0,0,4.7-2.78,9.79,9.79,0,0,0,.64-3.84v-14h6.81V35.93h-6.48V32.26c0,.08-.22.34-.48.67A3.72,3.72,0,0,1,346,34a9.57,9.57,0,0,1-3,2,10.65,10.65,0,0,1-3.49.52c-3.83,0-6.35-1.4-7.65-4.12a16.12,16.12,0,0,1-1.14-6.77V10.25Z"/><path class="cls-1" d="M380.35,13c2.08,2,3.17,5.26,3.17,9.72s-1.06,7.83-3.09,10.29a9.77,9.77,0,0,1-7.9,3.59,8,8,0,0,1-5.1-1.56,9.29,9.29,0,0,1-2.16-2.46V46h-6.65V10.25h6.44v3.82a11.63,11.63,0,0,1,2.3-2.71,8.82,8.82,0,0,1,5.34-1.75A10,10,0,0,1,380.35,13m-5.1,4.69a4.72,4.72,0,0,0-4.43-2.31,5,5,0,0,0-5.06,3.48,13.81,13.81,0,0,0-.71,4.78c0,2.82.76,5,2.35,6.19A5.57,5.57,0,0,0,370.8,31a4.82,4.82,0,0,0,4.3-2.25,9.74,9.74,0,0,0,1.51-5.64A10.48,10.48,0,0,0,375.25,17.73Z"/></svg>